<svg width="240" height="100" xmlns="http://www.w3.org/2000/svg">
 <defs>
  <linearGradient id="svg_2" y2="0" x2="0" y1="1" x1="0">
   <stop stop-color="#b722ff" offset="0%"/>
   <stop stop-color="#22d4fe" offset="100%"/>
  </linearGradient>
 </defs>
 <g>
  <title>Layer 1</title>
  <g stroke="null">
   <g stroke="null" transform="translate(114.72 103.32)" fill="#b722ff">
    <g stroke="null" fill="url(#svg_2)" data-gra="path-name">
     <g stroke="null" transform="translate(0 175) scale(1 1)">
      <g stroke="null">
       <path stroke="null" transform="translate(-0.91 43.36)" d="m-69.63285,-235.469l-16.37603,0l0,-13.14451l14.75679,0q6.94437,0 10.24962,-0.49249q3.32195,-0.49249 5.04135,-2.03791l0,0q2.40382,-1.88507 3.32195,-5.41744q0.91813,-3.53237 0.91813,-11.14056l0,0l0,-41.4035l15.30766,0l0,41.4035q0,7.72707 -0.55088,11.70099q-0.55088,3.97392 -2.17012,7.5063l0,0q-4.12322,9.37438 -14.9738,12.04064l0,0q-5.20828,0.98499 -15.52468,0.98499l0,0zm46.34032,-32.23291l0,-41.4035l15.29097,0l0,41.4035q0.33386,7.82896 0.65103,10.37635l0,0q0.76789,5.07779 4.77426,6.89492q4.02306,1.81713 14.10575,1.81713l0,0l14.77348,0l0,13.14451l-16.39272,0q-11.61847,0 -16.81005,-1.32464l0,0q-11.95233,-3.53237 -15.19081,-15.45414l0,0q-1.20191,-4.63624 -1.20191,-15.45414l0,0zm78.22433,32.23291l0,-32.23291l-26.79259,-41.4035l18.01196,0l16.60973,28.81942l17.46109,-28.81942l18.32913,0l-28.21151,41.94694l0,31.68947l-15.40782,0z"/>
      </g>
      <!---->
      <!---->
      <!---->
      <!---->
      <!---->
      <!---->
      <!---->
     </g>
    </g>
    <!---->
   </g>

  </g>
 </g>
</svg>